<svg xmlns="http://www.w3.org/2000/svg" version="1.1" xmlns:xlink="http://www.w3.org/1999/xlink" xmlns:svgjs="http://svgjs.dev/svgjs" viewBox="0 0 7.600209383967368 7.491103183586062"><g transform="matrix(1,0,0,1,2.0959266708064748,1.9346793488730123)"><g><path d=" M -1.3755767611295378 1.2345615934208198 Q -1.3557785783151313 1.1237076642110377 -1.2941229386618263 1.0787158262296686 Q -1.232467299008521 1.0337239882482991 -1.1308511972328876 1.0518723224948383 Q -1.0765789610572654 1.0615651828310582 -1.0403294164508496 1.095445139724146 Q -1.004079871844434 1.129325096617234 -0.99084306566795 1.1853093818184952 Q -0.9776062594914661 1.241293667019757 -0.9912175101763706 1.3175057433514819 L -1.0423553652095223 1.3036064314401545 Q -1.0359622020090369 1.2678098501328292 -1.017897767520918 1.2233736770654455 Q -0.9998333330327991 1.178937503998062 -0.9672730066416475 1.1400691559266343 Q -0.9347126802504959 1.1012008078552062 -0.8852029744845629 1.0808498575709875 Q -0.83569326871863 1.0604989072867688 -0.7664095629625163 1.0728727715457729 Q -0.6901974866307912 1.0864840222306773 -0.6461328606276547 1.1199723884412542 Q -0.6020682346245183 1.1534607546518312 -0.5827275682357604 1.198619564308849 Q -0.5633869018470026 1.243778373965867 -0.5618209530375559 1.2917204752399685 Q -0.5602550042281091 1.3396625765140697 -0.567885553854495 1.3823875283970066 L -0.619237090529362 1.6699149072848782 Q -0.6245990983749306 1.699937846445861 -0.6484158896293398 1.7165365502158512 Q -0.6722326808837492 1.7331352539858416 -0.7022556200447319 1.727773246140273 L -1.3696886521619605 1.608571687111867 Q -1.399711591322943 1.6032096792662984 -1.4163102950929334 1.5793928880118893 Q -1.4329089988629236 1.5555760967574797 -1.427546991017355 1.5255531575964971 L -1.3755767611295378 1.2345615934208198 M -1.2430309657535488 1.2796819715236953 L -1.2797400963885943 1.4852236319334993 L -1.295534747334107 1.4669124652172734 L -1.0865289016364974 1.504240289065269 L -1.0993962303517153 1.5162409505776413 L -1.0622746375747032 1.3083898333093003 Q -1.0562939365161843 1.2749027088605118 -1.0734904620396688 1.2444255646386502 Q -1.0906869875631533 1.2139484204167887 -1.1322572110168214 1.2065241018613864 Q -1.1819105334753697 1.1976561658091 -1.2088617058722497 1.218461321154198 Q -1.23581287826913 1.2392664764992956 -1.2430309657535488 1.2796819715236953 M -0.9249855275660958 1.3269514575389987 L -0.9625195824850749 1.537112031665877 L -0.9699013302803727 1.5250696272345927 L -0.7262536317047064 1.5685843832120905 L -0.7398632267072259 1.578069356794942 L -0.7006793232203796 1.3586709552339153 Q -0.6911926939551432 1.3055534474875614 -0.7139153015556711 1.269323118658217 Q -0.736637909156199 1.2330927898288726 -0.7932196021903585 1.222987467350686 Q -0.8451823815074437 1.213707069156433 -0.8719891093705162 1.2303675594635988 Q -0.8987958372335887 1.2470280497707649 -0.9097252561545165 1.274865105147562 Q -0.9206546750754443 1.302702160524359 -0.9249855275660958 1.3269514575389987 M -0.3621355532016385 0.5078918080285354 Q -0.34784783426739174 0.48094762328199003 -0.32113190620326415 0.4718793205647026 Q -0.2944159781391366 0.4628110178474153 -0.26747179339259125 0.47709873678166204 Q -0.24156392344398997 0.49083692806459156 -0.2340814631759638 0.5180396432753459 Q -0.22659900290793766 0.5452423584861004 -0.2408867218421844 0.5721865432326457 L -0.4194832085202686 0.9089888525644626 Q -0.43377092745451534 0.935933037311008 -0.46152317031658696 0.9444518123769782 Q -0.4892754131786585 0.9529705874429484 -0.5162195979252039 0.9386828685087016 L -1.1152095511368658 0.6210558860473703 Q -1.1421537358834113 0.6067681671131235 -1.150397747123723 0.57849776685208 Q -1.1586417583640345 0.5502273665910364 -1.1432549841271535 0.5212105522486029 Q -1.130066320495541 0.4963389970979457 -1.1017645499821522 0.4867839072340314 Q -1.0734627794687635 0.47722881737011713 -1.0465185947222182 0.49151653630436387 L -0.48794491863037415 0.7877119403643251 L -0.517651878524401 0.8011688958467021 L -0.3621355532016385 0.5078918080285354 M -0.2727637591417306 -0.6001105860038396 Q -0.2506527879118846 -0.6211161318256677 -0.2229076882365182 -0.6191602370805505 Q -0.19516258856115176 -0.6172043423354332 -0.17415704273932353 -0.5950933711055872 L 0.11830478754920759 -0.2872406178285011 Q 0.1853609530573515 -0.2166555942870697 0.20687693205494662 -0.13354793907995266 Q 0.22839291105254178 -0.05044028387283572 0.20475135079620976 0.030265054789772095 Q 0.18110979053987764 0.11097039345237991 0.11137518896882503 0.17721865335199194 Q 0.041640587397772405 0.24346691325160397 -0.04059538765804255 0.263345822851212 Q -0.12283136271385744 0.28322473245082 -0.2047273016083396 0.2574783754494646 Q -0.2866232405028218 0.2317320184481092 -0.35367940601096565 0.1611469949066779 L -0.6461412362994968 -0.14670575837040822 Q -0.667146782121325 -0.16881672960025418 -0.6659775348038159 -0.19824141503545456 Q -0.664808287486307 -0.22766610047065494 -0.6409964723157037 -0.25028745750954684 Q -0.6214367669969938 -0.26886928650577957 -0.5915656123956805 -0.26893315578199184 Q -0.5616944577943674 -0.268997025058204 -0.5406889119725391 -0.24688605382835804 L -0.248227081684008 0.06096669944872801 Q -0.20783180125741532 0.10348779796766255 -0.1600591741828608 0.11715822930304987 Q -0.11228654710830627 0.13082866063843723 -0.06593845498922568 0.11915645094313021 Q -0.019590362870145095 0.10748424124782324 0.01442651594500255 0.07516801690654906 Q 0.05099466067128622 0.040428075739679326 0.06630216140466072 -0.006472871183573037 Q 0.08160966213803522 -0.05337381810682551 0.07168081274533239 -0.10299604902188031 Q 0.06175196335262956 -0.1526182799369351 0.021356682926036902 -0.1951393784558697 L -0.27110514736249425 -0.5029921317329558 Q -0.2921106931843225 -0.5251031029628017 -0.29349271177794944 -0.5521040715724066 Q -0.2948747303715766 -0.5791050401820115 -0.2727637591417306 -0.6001105860038396 M 0.23964923626131254 -0.9287545070603125 L 0.5970410258167846 -1.0921091543261223 Q 0.6247788960509406 -1.1047874254572 0.6514944423109603 -1.0957179979929803 Q 0.6782099885709802 -1.0866485705287607 0.690888259702058 -1.0589107002946045 Q 0.703078905020402 -1.0322396712233008 0.6919673847678626 -1.0071701814762517 Q 0.6808558645153232 -0.9821006917292023 0.6531179942811671 -0.9694224205981246 L 0.35440246868256364 -0.8328871930326714 L 0.3557144003317591 -0.8554121251157619 L 0.4508014338148425 -0.6473780983595916 L 0.4383656980101552 -0.6520118211605388 L 0.6880065301175595 -0.7661162613402388 Q 0.7157444003517155 -0.7787945324713166 0.7424599466117354 -0.7697251050070969 Q 0.7691754928717551 -0.7606556775428772 0.7818537640028329 -0.7329178073087211 Q 0.7940444093211769 -0.7062467782374172 0.7829328890686376 -0.681177288490368 Q 0.7718213688160981 -0.6561077987433188 0.744083498581942 -0.643429527612241 L 0.4976431899630942 -0.5307879648707421 L 0.49907638927548487 -0.5417608232372282 L 0.5975768034477046 -0.32625890834109283 L 0.5846534418302836 -0.33195947230489214 L 0.8823021262660349 -0.4680070740576115 Q 0.9100399965001909 -0.4806853451886893 0.9372431685729444 -0.47054907656161743 Q 0.964446340645698 -0.46041280793454553 0.9756617343385745 -0.43587546118894593 Q 0.9878523796569185 -0.40920443211764207 0.9769846723107459 -0.38360152178916673 Q 0.9661169649645734 -0.35799861146069145 0.9383790947304174 -0.3453203403296136 L 0.5809873051749453 -0.18196569306380367 Q 0.5532494349407893 -0.1692874219327259 0.5260462628680358 -0.1794236905597978 Q 0.4988430907952822 -0.1895599591868697 0.48616481966420444 -0.2172978294210257 L 0.20431709990409053 -0.8339320215495715 Q 0.1916388287730127 -0.8616698917837275 0.2017750974000846 -0.8888730638564811 Q 0.21191136602715652 -0.9160762359292346 0.23964923626131254 -0.9287545070603125 M 1.7660159768037889 -0.45279664416027765 Q 1.6839316662758308 -0.45485043702952177 1.6187776660707756 -0.4770145489569066 Q 1.55362366586572 -0.49917866088429136 1.4951103379988755 -0.5522708480208858 Q 1.480188847780279 -0.5655512297795673 1.472391175301332 -0.5821734711720834 Q 1.4645935028223849 -0.5987957125645994 1.4650042613962337 -0.615212574670191 Q 1.465679079053271 -0.6421831338436629 1.4855409718950294 -0.6622201031564734 Q 1.5054028647367876 -0.682257072469284 1.5347186899253442 -0.6815235750159825 Q 1.556998717068647 -0.6809661169514734 1.574236133404196 -0.6664544223889854 Q 1.6178866508487082 -0.6289878830261572 1.66139095026143 -0.6091255087255288 Q 1.7048952496741516 -0.5892631344249005 1.7693900650889756 -0.5876494400276373 Q 1.8127774863680393 -0.5865638637967511 1.849466518430368 -0.5991396065413932 Q 1.8861555504926966 -0.6117153492860353 1.9090077056495747 -0.6340242348686003 Q 1.9318598608064526 -0.6563331204511651 1.932593358259754 -0.6856489456397216 Q 1.9334735552037159 -0.7208279358659893 1.9129822989287284 -0.7459813471907537 Q 1.8924910426537411 -0.7711347585155183 1.8495290498975925 -0.7892235133557672 Q 1.8065670571414438 -0.8073122681960161 1.7399616948965915 -0.8183657064498815 Q 1.6768742316743661 -0.8293311250093507 1.6292803866843126 -0.8498825054572123 Q 1.581686541694259 -0.8704338859050741 1.5501873013892145 -0.9011428747960333 Q 1.5186880610841698 -0.9318518636869925 1.5032834254641343 -0.9727184610210491 Q 1.4878787898440986 -1.0135850583551058 1.4891404054637771 -1.064008277679423 Q 1.491047498842361 -1.1402294231696697 1.5316803399091015 -1.1931876549291895 Q 1.5723131809758417 -1.2461458866887094 1.6398574199609197 -1.2726167046761963 Q 1.707401658945998 -1.299087522663683 1.7883133364664137 -1.297063069692571 Q 1.8645344819566603 -1.295155976313987 1.9290434858616807 -1.2706612683205838 Q 1.9935524897667007 -1.2461665603271805 2.0337144480867178 -1.209960673666291 Q 2.067045987648406 -1.1821392574469891 2.0661657907044444 -1.1469602672207215 Q 2.065520312945539 -1.1211623410547917 2.0450574336509435 -1.1005537251872761 Q 2.024594554356348 -1.0799451093197605 1.997623995182876 -1.080619926976798 Q 1.9800345000697424 -1.0810600254487788 1.9662269630624238 -1.0919658012942437 Q 1.9478755935155965 -1.1088521017699484 1.9165812510386062 -1.124302191613792 Q 1.885286908561616 -1.139752281457636 1.8503573074694708 -1.150599858965707 Q 1.8154277063773256 -1.161447436473778 1.784939248181227 -1.1622102738252114 Q 1.73451602885691 -1.1634718894448899 1.6996006162549606 -1.1514384533568207 Q 1.6646852036530113 -1.1394050172687518 1.6465382504753683 -1.1175650885974298 Q 1.6283912972977252 -1.0957251599261078 1.627657799844424 -1.0664093347375512 Q 1.6267776029004621 -1.0312303445112836 1.6467265525188766 -1.0078505526468986 Q 1.6666755021372908 -0.9844707607825134 1.7050349825576667 -0.9700172645574195 Q 1.7433944629780425 -0.9555637683323257 1.7970715222417977 -0.9436604359503706 Q 1.8671067638148806 -0.9290010789794823 1.9200214671860725 -0.9100766185013397 Q 1.9729361705572641 -0.8911521580231971 2.0074256731774285 -0.8627150854019923 Q 2.041915175797593 -0.8342780127807874 2.0584631045270387 -0.7922094425410564 Q 2.0750110332564846 -0.7501408723013254 2.073514698451749 -0.6903365889166703 Q 2.0716076050731655 -0.6141154434264235 2.0280138415894378 -0.5600579284046916 Q 1.9844200781057095 -0.5060004133829596 1.915087549711186 -0.4784009722351286 Q 1.8457550213166625 -0.4508015310872976 1.7660159768037889 -0.45279664416027765 M 2.4851071013120345 -0.3308935387224382 Q 2.4541143166079813 -0.34176440033908084 2.4409846720943484 -0.3681233018183845 Q 2.427855027580716 -0.39448220329768807 2.437949399081884 -0.42326121766573765 L 2.6631315325694813 -1.0652546151068438 L 2.807026604409729 -1.0147827576010031 L 2.581844470922132 -0.37278936015989694 Q 2.5717500994209637 -0.34401034579184736 2.544478435302527 -0.33182238891995286 Q 2.51720677118409 -0.31963443204805836 2.4851071013120345 -0.3308935387224382 M 2.4676088379598964 -1.064223519763483 Q 2.438829823591847 -1.0743178912646512 2.4256712540756094 -1.0988223424630834 Q 2.412512684559372 -1.1233267936615157 2.42260705606054 -1.1521058080295652 Q 2.432701427561708 -1.1808848223976147 2.458089716396669 -1.1912472539912426 Q 2.483478005231629 -1.2016096855848706 2.5122570195996787 -1.1915153140837023 L 3.0037140341925257 -1.0191345084483694 Q 3.032493048560575 -1.0090401369472013 3.0456516180768127 -0.984535685748769 Q 3.0588101875930502 -0.960031234550337 3.048715816091882 -0.9312522201822875 Q 3.038621444590714 -0.9024732058142377 3.0132331557557537 -0.8921107742206098 Q 2.987844866920793 -0.8817483426269819 2.9590658525527433 -0.89184271412815 L 2.4676088379598964 -1.064223519763483 M 3.7542946350804254 0.004025654779482357 Q 3.6982554306215976 0.07184311704858903 3.6270822993342446 0.11193851619553885 Q 3.5559091680468917 0.15203391534248878 3.4777806993274742 0.1627963230684104 Q 3.3996522306080568 0.17355873079433198 3.322216375719172 0.152177912992442 Q 3.2447805208302873 0.13079709519055205 3.1778672913914354 0.07550508012450868 Q 3.1109540619525835 0.020213065058465374 3.075812929474751 -0.051431196541298685 Q 3.040671796996919 -0.12307545814106274 3.0365150781631534 -0.20183210061036194 Q 3.0323583593293884 -0.2805887430796612 3.0583198491040036 -0.3580436118658295 Q 3.0842813388786188 -0.43549848065199787 3.1403205433374466 -0.5033159429211045 Q 3.196359747796274 -0.5711334051902112 3.267532879083627 -0.611228804337161 Q 3.33870601037098 -0.6513242034841109 3.4168344790903977 -0.6620866112100324 Q 3.494962947809815 -0.6728490189359541 3.5719466862835727 -0.6518417958304563 Q 3.6489304247573298 -0.6308345727249586 3.7158436541961812 -0.5755425576589153 Q 3.7827568836350336 -0.5202505425928718 3.8183501325279936 -0.4482326862967157 Q 3.853943381420953 -0.37621483000055933 3.858100100254718 -0.29745818753126013 Q 3.8622568190884836 -0.21870154506196093 3.8362953293138684 -0.14124667627579268 Q 3.810333839539253 -0.06379180748962432 3.7542946350804254 0.004025654779482357 M 3.6367443671473074 -0.09310896628248566 Q 3.68680605646386 -0.15369256590955427 3.7031135919537297 -0.2231473687636164 Q 3.7194211274435993 -0.2926021716176786 3.7008322449907256 -0.3566555236466961 Q 3.682243362537852 -0.42070887567571363 3.626180927062057 -0.46703461802834456 Q 3.5701184915862623 -0.5133603603809754 3.503709487995189 -0.5195428112736886 Q 3.4373004844041155 -0.5257252621664019 3.372990087192009 -0.4966972082414308 Q 3.308679689979902 -0.46766915431645983 3.2578708112705645 -0.40618132185913647 Q 3.207809121954012 -0.34559772223206786 3.191049470049015 -0.2765165140743979 Q 3.174289818144018 -0.20743530591672793 3.1928787005968915 -0.14338195388771038 Q 3.2114675830497648 -0.07932860185869284 3.26753001852556 -0.033002859506061966 Q 3.323592454001355 0.013322882846568962 3.3900014575924278 0.01950533373928215 Q 3.456410461183501 0.025687784631995336 3.521546569507128 -0.003418791011710831 Q 3.5866826778307543 -0.032525366655417054 3.6367443671473074 -0.09310896628248566 M 4.606274849055612 0.6118044453205471 Q 4.619632655500262 0.6365855694069813 4.611460535137213 0.6609789762574364 Q 4.6032884147741635 0.6853723831078917 4.57850729068773 0.6987301895525424 L 3.9765324847547667 1.0232135711038512 Q 3.9496862669944632 1.0376845280855562 3.9218766301488803 1.0293550256384227 Q 3.894066993303298 1.0210255231912888 3.8795960363215927 0.9941793054309852 Q 3.8723605578307403 0.9807561965508333 3.8694932524718304 0.9643122255438422 Q 3.866625947112921 0.947868254536851 3.870990294928709 0.9361878245300908 L 4.167497086027995 0.2526658586197008 L 4.198488792400656 0.2706068720835706 L 3.7069964980197128 0.535536699902478 Q 3.682215373933279 0.5488945063471287 3.6570677078801523 0.5417952346710739 Q 3.631920041827026 0.534695962995019 3.618005660113848 0.5088822920716501 Q 3.6046478536691975 0.484101167985216 3.612819974032247 0.4597077611347608 Q 3.6209920943952962 0.4353143542843056 3.64577321848173 0.4219565478396548 L 4.247748024414692 0.09747316628834607 Q 4.274594242174996 0.08300220930664104 4.302403879020579 0.09133171175377469 Q 4.330213515866162 0.0996612142009084 4.344684472847867 0.12650743196121203 Q 4.352476526607246 0.1409630876782986 4.355146148032012 0.15951245420921908 Q 4.357815769456778 0.17806182074013957 4.350353781130185 0.19141197655248116 L 4.060591195688725 0.8553079019288015 L 4.038738854080547 0.844433508923236 L 4.517840586418274 0.5861825843266542 Q 4.542621710504708 0.5728247778820033 4.567491088923571 0.5794077761395908 Q 4.592360467342433 0.5859907743971782 4.606274849055612 0.6118044453205471 M 4.784562216833361 1.1955607679564997 L 4.845525793672796 1.5837579785646418 Q 4.850257295158842 1.6138867172984082 4.834321798501098 1.6371683596968951 Q 4.818386301843354 1.6604500020953823 4.788257563109588 1.6651815035814281 Q 4.7592876220194285 1.6697310242410874 4.7381415940817675 1.6522727682869642 Q 4.7169955661441065 1.634814512332841 4.712264064658061 1.604685773599075 L 4.661309433269876 1.2802224333892844 L 4.682646820648662 1.2875579381331737 L 4.456681280145416 1.3230441992785167 L 4.4644958146831755 1.3123179715185747 L 4.507079328057587 1.5834766201224708 Q 4.511810829543633 1.6136053588562371 4.495875332885889 1.6368870012547243 Q 4.479939836228145 1.6601686436532113 4.449811097494379 1.664900145139257 Q 4.420841156404219 1.6694496657989166 4.399695128466559 1.6519914098447934 Q 4.378549100528898 1.6345331538906702 4.373817599042852 1.6044044151569041 L 4.331780028147599 1.336722159483827 L 4.341960313428382 1.3410603010907678 L 4.107883189419891 1.3778204280208155 L 4.116856521601258 1.3669122194344872 L 4.167629172163056 1.6902167620006712 Q 4.172360673649101 1.7203455007344375 4.155266379347752 1.743809123959311 Q 4.138172085046401 1.7672727471841845 4.1115197392434535 1.771458306191071 Q 4.082549798153294 1.7760078268507304 4.060824371393831 1.7586405613098004 Q 4.039098944634366 1.7412732957688704 4.03436744314832 1.7111445570351043 L 3.973403866308885 1.322947346426962 Q 3.9686723648228392 1.2928186076931958 3.9857666591241894 1.2693549844683223 Q 4.0028609534255395 1.245891361243449 4.0329896921593065 1.2411598597574032 L 4.702774730163802 1.1359749421060785 Q 4.732903468897568 1.1312434406200327 4.756367092122442 1.148337734921383 Q 4.779830715347315 1.1654320292227334 4.784562216833361 1.1955607679564997" fill="#004a80" fill-rule="nonzero"></path></g><g><path d=" M 0.5017178696141533 3.9281763646514807 Q 0.5101612738712127 3.946057052684995 0.501127493095719 3.9624092305491305 Q 0.49209371232022514 3.9787614084132663 0.4729767267799472 3.9837105659024554 Q 0.45756069883568906 3.9888624667576593 0.4454242719068803 3.981059032295726 Q 0.4332878449780717 3.973255597833793 0.4260807382277756 3.9588691565681486 Q 0.41124913560874865 3.9220781938225056 0.38706575104773255 3.8892008506942357 Q 0.36288236648671635 3.856323507565966 0.3283215807672326 3.830444576628774 Q 0.27977190558986265 3.794090840312243 0.22681960595969286 3.780767709153363 Q 0.17386730632952307 3.7674445779944827 0.12144566988720162 3.77570904365834 Q 0.06902403344488017 3.7839735093221973 0.0211421002975839 3.8136168772495744 Q -0.026739832849712375 3.8432602451769515 -0.0649420642331856 3.894278547905713 Q -0.10560895570591516 3.9485883540363305 -0.12036914400650567 4.004317363729049 Q -0.13512933230709617 4.060046373421767 -0.12758438707962794 4.112571365278164 Q -0.1200394418521597 4.16509635713456 -0.09183709852862826 4.210615001875607 Q -0.06363475520509676 4.256133646616655 -0.016730831728654527 4.291255052888557 Q 0.017007078140365284 4.316517818803435 0.055054175703448394 4.330880455296267 Q 0.09310127326653145 4.3452430917891 0.13401851765089978 4.348912309688036 Q 0.14985193471359293 4.351778489047186 0.1601398665754593 4.362050551060511 Q 0.1704277984373258 4.372322613073837 0.17126257667419575 4.388358773502544 Q 0.17127844652273716 4.4089187673777355 0.1580269310808491 4.421470599693912 Q 0.1447754156389608 4.434022432010087 0.12668008185302582 4.430746798456773 Q 0.09686571025671703 4.42768581065588 0.06283162026294625 4.418254478072628 Q 0.02879753026917542 4.408823145489375 -0.0039048417280276304 4.393325583172787 Q -0.036607213725230736 4.377828020856199 -0.06540786849146718 4.3562622450752055 Q -0.12465492972486791 4.3118983634685915 -0.1619148585967053 4.251891905778892 Q -0.19917478746854267 4.191885448089193 -0.21053594809251175 4.123018197024 Q -0.22189710871648083 4.054150945958807 -0.20437409647081534 3.9818689987670064 Q -0.18685108422514984 3.9095870515752056 -0.13570938737308086 3.841288355986702 Q -0.0876485156325823 3.777104039650518 -0.025380141219641605 3.7402535649728446 Q 0.03688823319329915 3.7034030902951716 0.1063736330118743 3.6937890530551374 Q 0.17585903283044946 3.6841750158151036 0.2455709807878511 3.7017000117918366 Q 0.3152829287452529 3.71922500776857 0.37699861753004527 3.765437384442126 Q 0.419788161754168 3.7974779656024586 0.45189420603973374 3.8394983961135 Q 0.4840002503252996 3.881518826624542 0.5017178696141533 3.9281763646514807 M 0.4909369545986506 4.664503517256338 Q 0.4725284964837118 4.6579745285267915 0.4635723743891267 4.641709115620047 Q 0.4546162522945415 4.625443702713303 0.4604579790525567 4.608972977031516 L 0.6731655592414618 4.009244788971141 Q 0.6790072859994771 3.9927740632893536 0.6941010038264023 3.985583858135037 Q 0.7091947216533275 3.9783936529807207 0.725665447335115 3.9842353797387355 L 0.9930725231100155 4.079077531810041 Q 1.0473290312382562 4.098320867012914 1.0821654208471412 4.138490349895047 Q 1.1170018104560262 4.17865983277718 1.1273851863287139 4.2308806005375885 Q 1.1377685622014013 4.283101368297997 1.1178379650269967 4.339295608859389 Q 1.1034054636248416 4.37998798995557 1.0753610731791856 4.4098535110883335 Q 1.0473166827335296 4.439719032221098 1.011082207546621 4.4557723193589185 Q 0.9748477323597123 4.471825606496738 0.9351577147622678 4.473019018041237 L 0.9193407537698514 4.449957276889182 Q 0.9495331572473013 4.469391660137818 0.9686481098866512 4.498531454193292 Q 0.9877630625260011 4.527671248248765 0.9934094121561721 4.564032260828916 Q 0.9990557617863431 4.6003932734090665 0.9855921266007637 4.641429285491013 Q 0.974815512560588 4.677964597475846 0.970162229523472 4.700310547197809 Q 0.965508946486356 4.722656496919772 0.9670267564637405 4.736829110541562 Q 0.9685445664411247 4.751001724163352 0.9767966779230987 4.761563728522804 Q 0.9872681260832684 4.775094358272703 0.9864735592713751 4.791173690957285 Q 0.985678992459482 4.807253023641866 0.9711794964930064 4.81738084081627 Q 0.9622736203216616 4.824038850850858 0.950413383489149 4.823649941765451 Q 0.9385531466566365 4.823261032680045 0.9282392492600691 4.818512225620047 Q 0.9179253518635017 4.81376341856005 0.9118925770597239 4.806170039591047 Q 0.8994833964664026 4.791952147869615 0.8909639454686648 4.769842524293057 Q 0.8824444944709267 4.747732900716497 0.8840956548354342 4.712324005711842 Q 0.8857468151999416 4.676915110707187 0.9053337813885807 4.621689736362371 Q 0.9163299729330798 4.590686017431947 0.9138575614684001 4.566903517026201 Q 0.9113851500037204 4.5431210166204545 0.8993816271368859 4.524684029046956 Q 0.8873781042700513 4.506247041473456 0.868750068650789 4.4941864596895 Q 0.8501220330315268 4.482125877905544 0.8288069762668607 4.4745659962187005 L 0.6127498099704736 4.397936286392972 L 0.6305615623131631 4.384620266323796 L 0.540873875028342 4.63749434885006 Q 0.5350321482703269 4.653965074531848 0.5212199142753824 4.662155159273101 Q 0.5074076802804379 4.670345244014354 0.4909369545986506 4.664503517256338 M 0.6374912409455966 4.328177918799519 L 0.8748634640066498 4.412367510312091 Q 0.9036478462588771 4.420395076466142 0.9345392925253388 4.411718074704802 Q 0.9654307387918006 4.403041072943461 0.9925850384026821 4.377222832169882 Q 1.0197393380135635 4.351404591396304 1.033828208429953 4.311681076516699 Q 1.0520406506755298 4.260331167038185 1.0316107169220388 4.214909211434888 Q 1.0111807831685478 4.169487255831589 0.9617686061231858 4.1519620755575435 L 0.7331161790113143 4.070865162916863 L 0.7473960974734665 4.055205752688049 L 0.6429322778007247 4.3497410825270695 L 0.6374912409455966 4.328177918799519 M 1.884551420772468 4.193771174088893 Q 1.902022155421128 4.194200134268997 1.9130239530078343 4.206809980019884 Q 1.9240257505945406 4.219419825770769 1.9235967904144364 4.23689056041943 L 1.9135793085614132 4.644883598979311 Q 1.9116363712750586 4.724015750035005 1.8736141565095419 4.7858090869276255 Q 1.835591941744025 4.847602423820247 1.7730347555491255 4.882571451421492 Q 1.7104775693542256 4.917540479022737 1.6323731085719815 4.915622774688154 Q 1.5532409575162869 4.913679837401799 1.4919614657603915 4.875670239112167 Q 1.430681974004496 4.837660640822536 1.396252024491747 4.774088380830071 Q 1.3618220749789978 4.710516120837606 1.3637650122653522 4.631383969781911 L 1.3737824941183754 4.22339093122203 Q 1.3742114542984796 4.205920196573371 1.3863326878644113 4.193878092237329 Q 1.398453921430343 4.1818359879012865 1.417980036625904 4.182315413984933 Q 1.4344230810011136 4.182719141213266 1.4469664139979956 4.195366836391808 Q 1.459509746994878 4.208014531570351 1.4590807868147737 4.22548526621901 L 1.4490633049617505 4.633478304778891 Q 1.4476754926143545 4.690001269818673 1.472282732524473 4.7348227753713195 Q 1.4968899724345912 4.779644280923965 1.5399486017378554 4.805895093073765 Q 1.5830072310411196 4.832145905223565 1.6343917447136487 4.8334075528121065 Q 1.6868039486596282 4.8346944333524196 1.7316128377363889 4.810601038579026 Q 1.7764217268131495 4.786507643805633 1.804740535985736 4.742985635269186 Q 1.8330593451583224 4.699463626732737 1.8344471575057186 4.642940661692956 L 1.8444646393587418 4.234947623133075 Q 1.844893599538846 4.217476888484415 1.8554732976946018 4.205396934720716 Q 1.8660529958503578 4.193316980957018 1.884551420772468 4.193771174088893 M 2.3478781645883884 4.798350310954769 Q 2.3513593386279803 4.815476081106971 2.341224159896955 4.8301245468317555 Q 2.3310889811659306 4.84477301255654 2.313963211013728 4.848254186596132 Q 2.294822644373031 4.852144910522735 2.281283964364247 4.842308655970328 Q 2.2677452843554624 4.832472401417921 2.26426411031587 4.815346631265719 L 2.13771319522952 4.192774516320946 Q 2.134027246246422 4.174641347924497 2.143761113327076 4.160598968793589 Q 2.1534949804077304 4.146556589662681 2.17162814880418 4.142870640679583 Q 2.1887539189563827 4.139389466639991 2.2031976097376615 4.148517247126769 Q 2.2176413005189404 4.157645027613547 2.2213272495020377 4.175778196009996 L 2.3478781645883884 4.798350310954769 M 2.891149961509816 4.6811856128781715 Q 2.820950853701923 4.71049490230961 2.7591136320163328 4.711804900098621 Q 2.697276410330743 4.713114897887634 2.628935876564264 4.68817605836947 Q 2.6195229200686514 4.684308102577102 2.611887447834831 4.6780270131997295 Q 2.60425197560101 4.671745923822356 2.600291260812978 4.66225955790237 Q 2.5939541171521263 4.647081372430393 2.5999125444750693 4.630668593024175 Q 2.6058709717980126 4.614255813617955 2.621997793861988 4.607522598478301 Q 2.635278706149968 4.601977597775056 2.650070494928787 4.608055814020204 Q 2.7021180382112533 4.628657216842824 2.753202432723252 4.629608696397249 Q 2.8042868272352504 4.630560175951674 2.8583591129791683 4.607984101659891 Q 2.9000991230271045 4.5905569565925495 2.9282307213398084 4.5632155068070555 Q 2.956362319652512 4.535874057021561 2.9663819011144015 4.503840641166731 Q 2.9764014825762906 4.471807225311899 2.9633311237757844 4.440502217775946 Q 2.9465396280316574 4.402952825574808 2.9148974462628066 4.387199882455917 Q 2.8832552644939553 4.371446939337027 2.838852868230956 4.370490622389779 Q 2.794450471967957 4.3695343054425315 2.7403685114383936 4.378746383236316 Q 2.6923744419396245 4.3865306687492795 2.6495147894868287 4.386601235211227 Q 2.606655137034033 4.386671801673174 2.5707856327061975 4.375468843167697 Q 2.5349161283783626 4.364265884662221 2.506943866662477 4.33862566675172 Q 2.478971604946592 4.312985448841218 2.4611483884004475 4.270296802201283 Q 2.438572314108664 4.216224516457365 2.4500003382800823 4.163550998637331 Q 2.461428362451501 4.1108774808172965 2.502398422075549 4.06759273252876 Q 2.5433684816995967 4.024307984240224 2.6088244065474973 3.9969790522028017 Q 2.6666912386594093 3.9728186919958057 2.7263133624993947 3.9702055282410016 Q 2.78593548633938 3.9675923644861975 2.831102995633445 3.987724286405641 Q 2.8576010855706775 3.997826952077549 2.8647303721891353 4.014902410733523 Q 2.8706714443711836 4.029131959613501 2.863764380456242 4.045940810498523 Q 2.8568573165413 4.062749661383545 2.841679131069323 4.069086805044398 Q 2.831244128557339 4.073443591311233 2.819537827398926 4.069419141884473 Q 2.7958856472376894 4.058128261776155 2.7652800236636788 4.05419657134506 Q 2.734674400089668 4.050264880913966 2.701702022428484 4.0540053674288785 Q 2.6687296447673 4.057745853943791 2.6393219104153447 4.07002406978669 Q 2.5956846271834113 4.088243357811638 2.567829311427305 4.114912453561732 Q 2.539973995671199 4.141581549311825 2.531179333357906 4.172546539652452 Q 2.522384671044613 4.203511529993079 2.535851101323922 4.23576517412103 Q 2.550901817518444 4.271813364616975 2.5814755737730914 4.286341388587269 Q 2.6120493300277383 4.300869412557563 2.6532879918531345 4.300918635017822 Q 2.694526653678531 4.3009678574780805 2.741968158064105 4.294528280035919 Q 2.7932042088176723 4.286504416678543 2.8387117353070623 4.2847713174841875 Q 2.8842192617964524 4.283038218289832 2.921788003568883 4.292974715541702 Q 2.9593567453413137 4.302911212793573 2.989069786606804 4.330052632409268 Q 3.018782827872294 4.357194052024964 3.039378544770061 4.406523154808889 Q 3.061162476104238 4.4586981673688095 3.048785815340821 4.5117677566676475 Q 3.036409154577404 4.564837345966485 2.99536084813616 4.609268766586421 Q 2.954312541694916 4.653700187206358 2.891149961509816 4.6811856128781715 M 3.0078358983711095 3.7996767561887257 L 3.297097740449646 3.5754889694086875 Q 3.3109108059421604 3.564783372848966 3.3275883558284605 3.566164347066673 Q 3.3442659057147606 3.567545321284379 3.3549715022744815 3.5813583867768934 Q 3.3656770988342024 3.595171452269408 3.3625389798910787 3.611259943233411 Q 3.359400860947955 3.627348434197414 3.3455877954554407 3.638054030757135 L 3.083952084361933 3.8408306244177313 L 3.080559287180602 3.821349890158306 L 3.2398837536282135 4.026920806017491 L 3.2248312702704447 4.024280349851582 L 3.450715517736268 3.8492123590514393 Q 3.464528583228782 3.8385067624917184 3.4812061331150823 3.839887736709425 Q 3.4978836830013824 3.841268710927131 3.508589279561104 3.8550817764196452 Q 3.5192948761208247 3.8688948419121596 3.5161567571777006 3.884983332876163 Q 3.513018638234577 3.901071823840166 3.4992055727420626 3.9117774203998867 L 3.275758925069036 4.084956188277725 L 3.2757789891519837 4.073235202080626 L 3.4388819014442027 4.283681317525405 L 3.429598515039901 4.281772030520154 L 3.688796626340612 4.08088465978186 Q 3.702609691833126 4.07017906322214 3.7199169826935274 4.072372570704111 Q 3.7372242735539287 4.074566078186083 3.7466703881654473 4.086754077150067 Q 3.757375984725168 4.100567142642581 3.7545527362690954 4.117061900238717 Q 3.751729487813022 4.133556657834853 3.7379164223205077 4.144262254394573 L 3.4486545802419712 4.368450041174611 Q 3.434841514749457 4.379155637734333 3.4179404905211883 4.37664725976531 Q 3.4010394662929198 4.374138881796288 3.390333869733199 4.3603258163037735 L 3.0005242067645366 3.857367725723397 Q 2.9898186102048157 3.8435546602308825 2.9919207215417054 3.8269685064896644 Q 2.994022832878595 3.8103823527484466 3.0078358983711095 3.7996767561887257" fill="#004a80" fill-rule="nonzero"></path></g><g clip-path="url(#SvgjsClipPath1002)"><g clip-path="url(#a1d0fd4ee-0998-4d78-9fdb-519e30469b1f9399587a-9a94-477c-942a-f9ea50bdd3fc)"><path d=" M 3.2481894247932073 1.857223699646377 C 3.2481894247932073 1.0542375332616085 2.5578915099076553 0.4033146068385025 1.706469165246908 0.4033146068385025 C 0.8548820716804596 0.4033146068385025 0.16474890570060854 1.0542375332616087 0.16474890570060854 1.857223699646377 C 0.16474890570060854 2.660209866031145 0.8548820716804596 3.3111327924542513 1.706469165246908 3.3111327924542513 C 2.5578915099076553 3.3111327924542513 3.2481894247932073 2.660209866031145 3.2481894247932073 1.857223699646377 M 2.94043846894447 1.857223699646377 C 2.94043846894447 2.4999091807844525 2.387870639224627 3.0208452206097784 1.706469165246908 3.0208452206097784 C 1.0249029423634883 3.0208452206097784 0.4724998615493462 2.4999091807844525 0.4724998615493462 1.857223699646377 C 0.4724998615493462 1.2145382185083011 1.0249029423634886 0.6936021786829755 1.7064691652469082 0.6936021786829755 C 2.387870639224627 0.6936021786829755 2.94043846894447 1.2145382185083011 2.94043846894447 1.857223699646377" fill="#006fbf" transform="matrix(1,0,0,1,0,0)" fill-rule="nonzero"></path></g><g clip-path="url(#a1d0fd4ee-0998-4d78-9fdb-519e30469b1f9399587a-9a94-477c-942a-f9ea50bdd3fc)"><path d=" M 2.002522948790902 1.857223699646377 C 2.002522948790902 1.7030187239106067 1.869900079701912 1.5779743044838446 1.706469165246908 1.5779743044838446 C 1.5430382507919038 1.5779743044838446 1.4104153817029135 1.7030187239106067 1.4104153817029135 1.857223699646377 C 1.4104153817029135 2.011428675382147 1.5430382507919038 2.1364730948089092 1.706469165246908 2.1364730948089092 C 1.869900079701912 2.1364730948089092 2.002522948790902 2.011428675382147 2.002522948790902 1.857223699646377 M 1.8361265540332872 1.857223699646377 C 1.8361265540332872 1.9247707509836265 1.7781349392266728 1.9794673876762288 1.706469165246908 1.9794673876762288 C 1.634803391267143 1.9794673876762288 1.5768117764605287 1.9247707509836265 1.5768117764605287 1.857223699646377 C 1.5768117764605287 1.789676648309127 1.634803391267143 1.7349800116165248 1.706469165246908 1.7349800116165248 C 1.7781349392266728 1.7349800116165248 1.8361265540332872 1.789676648309127 1.8361265540332872 1.857223699646377" fill="#006fbf" transform="matrix(1,0,0,1,0,0)" fill-rule="nonzero"></path></g><g clip-path="url(#a1d0fd4ee-0998-4d78-9fdb-519e30469b1f9399587a-9a94-477c-942a-f9ea50bdd3fc)"><path d=" M 1.7997170458734528 1.3748389037549937 C 1.7733572209613555 1.3479848321257946 1.7914796005884224 1.3150350509856727 1.7914796005884224 1.3150350509856727 L 1.7913148516827218 1.3148703020799721 C 1.8099314780268907 1.2957594290187016 1.8217933992373343 1.2703880975408077 1.8217933992373343 1.2422160346660036 C 1.8215423583743835 1.2154731083594126 1.8109781024576117 1.1898592141254525 1.7923033451169246 1.1707150095919385 L 1.792468094022626 1.1707150095919385 C 1.7838389560657362 1.161891465988258 1.7784901751415392 1.1503799592166166 1.77731119469817 1.1380947262632186 L 1.7771464457924695 1.1380947262632186 L 1.7771464457924695 0.9777940410165261 L 1.77731119469817 0.9772997942994244 C 1.778958683755176 0.9618133971635671 1.7965868166651413 0.9624723927863695 1.7965868166651413 0.9624723927863695 L 1.8030120239874652 0.9624723927863695 C 1.8030120239874652 0.9624723927863695 1.8440345015069168 0.9624723927863695 1.8440345015069168 0.9240858977581277 L 1.8440345015069168 0.34285175844637905 C 1.8440345015069168 0.34285175844637905 1.8440345015069168 0.30446526341813734 1.8030120239874652 0.30446526341813734 L 1.7959278210423388 0.30446526341813734 C 1.7959278210423388 0.30446526341813734 1.7771464457924695 0.30397101670103543 1.7771464457924695 0.2884846195651781 L 1.7771464457924695 0.23905994785499546 L 1.77731119469817 0.23905994785499546 C 1.77731119469817 0.23905994785499546 1.776487450169667 0.22324405290773702 1.7904911071542189 0.2115468806029937 L 1.7904911071542189 0.21072313607449072 C 1.818152059757765 0.18880371943087212 1.83443747596137 0.15556694063615412 1.8348085627876825 0.1202759868448564 C 1.8348085627876825 0.05388217784751104 1.77731119469817 0.000009285683411831492 1.7064691652469082 0.000009285683411831492 C 1.6356271357956462 0.000009285683411831492 1.5781297677061337 0.05388217784751104 1.5781297677061337 0.12027598684485655 C 1.5781297677061337 0.15652074609899042 1.5955931517103983 0.1886467827106093 1.622611972245298 0.21072313607449086 L 1.6224472233395975 0.21154688060299387 C 1.6304378884683106 0.21818106496493658 1.6352789362890205 0.22786316060635645 1.635791884701347 0.2382362033264926 L 1.635791884701347 0.28897886628228014 C 1.635297637984245 0.303806267795335 1.6170105094514773 0.30446526341813746 1.6170105094514773 0.30446526341813746 L 1.6099263065063512 0.30446526341813746 C 1.6099263065063512 0.30446526341813746 1.5689038289868995 0.30446526341813746 1.5689038289868995 0.3428517584463792 L 1.5689038289868995 0.9240858977581276 C 1.5689038289868995 0.9240858977581276 1.5689038289868995 0.9624723927863694 1.6099263065063512 0.9624723927863694 L 1.6163515138286748 0.9624723927863694 C 1.6163515138286748 0.9624723927863694 1.6341443956443407 0.9618133971635671 1.6357918847013466 0.9772997942994243 L 1.6357918847013466 1.1380947262632186 C 1.6357918847013466 1.1380947262632186 1.6348033912671431 1.1563818547959863 1.62047023647119 1.1707150095919392 L 1.6206349853768907 1.1707150095919392 C 1.601960228036204 1.1898592141254534 1.5913959721194322 1.2154731083594137 1.5911449312564818 1.2422160346660036 C 1.5911449312564818 1.2703880975408077 1.6028421035612248 1.2957594290187013 1.6216234788110944 1.3148703020799721 L 1.621458729905394 1.3150350509856727 C 1.621458729905394 1.3150350509856727 1.6395811095324606 1.3479848321257946 1.6132212846203633 1.3748389037549937 L 1.6099263065063512 1.3748389037549937 C 1.6099263065063512 1.3748389037549937 1.5689038289868995 1.3748389037549937 1.5689038289868995 1.4132253987832357 L 1.5689038289868995 1.6384371528759683 C 1.5689038289868995 1.6384371528759683 1.5689038289868995 1.6768236479042102 1.6099263065063512 1.6768236479042102 L 1.8030120239874652 1.6768236479042102 C 1.8030120239874652 1.6768236479042102 1.8440345015069168 1.6768236479042102 1.8440345015069168 1.6384371528759683 L 1.8440345015069168 1.4132253987832357 C 1.8440345015069168 1.4132253987832357 1.8440345015069168 1.3748389037549937 1.8030120239874652 1.3748389037549937 Z" fill="#006fbf" transform="matrix(1,0,0,1,0,0)" fill-rule="nonzero"></path></g><g clip-path="url(#a1d0fd4ee-0998-4d78-9fdb-519e30469b1f9399587a-9a94-477c-942a-f9ea50bdd3fc)"><path d=" M 1.6132212846203633 2.3394437466320595 C 1.6395811095324606 2.3662978182612586 1.621458729905394 2.3992475994013804 1.621458729905394 2.3992475994013804 L 1.6216234788110944 2.399412348307081 C 1.6023246136510108 2.4186932833170203 1.591378030652551 2.444787570356592 1.5911449312564818 2.4720666157210496 C 1.5913959721194326 2.4988095420276406 1.6019602280362046 2.5244234362616007 1.6206349853768915 2.5435676407951147 L 1.62047023647119 2.5435676407951147 C 1.62909937442808 2.552391184398795 1.634448155352277 2.5639026911704366 1.6356271357956462 2.5761879241238343 L 1.6357918847013466 2.5761879241238343 L 1.6357918847013466 2.7364886093705265 L 1.6356271357956462 2.736982856087629 C 1.6339796467386403 2.7524692532234862 1.6163515138286748 2.7518102576006833 1.6163515138286748 2.7518102576006833 L 1.6099263065063512 2.7518102576006833 C 1.6099263065063512 2.7518102576006833 1.5689038289868995 2.7518102576006833 1.5689038289868995 2.7901967526289253 L 1.5689038289868995 3.371430891940674 C 1.5689038289868995 3.371430891940674 1.5689038289868995 3.409817386968916 1.6099263065063512 3.409817386968916 L 1.6170105094514773 3.409817386968916 C 1.6170105094514773 3.409817386968916 1.6357918847013466 3.4103116336860175 1.6357918847013466 3.4256332819161743 L 1.6357918847013466 3.475222702532058 L 1.6356271357956462 3.475222702532058 C 1.6356271357956462 3.475222702532058 1.636450880324149 3.491038597479316 1.6224472233395975 3.502735769784059 L 1.6224472233395975 3.5035595143125624 C 1.5947862707360512 3.525478930956181 1.5785008545324464 3.558715709750899 1.5781297677061337 3.5940066635421966 C 1.5781297677061337 3.6604004725395423 1.6356271357956462 3.714273364703641 1.706469165246908 3.714273364703641 C 1.77731119469817 3.714273364703641 1.8348085627876825 3.6604004725395423 1.8348085627876825 3.5940066635421966 C 1.83443747596137 3.5587157097508992 1.8181520597577652 3.5254789309561816 1.790491107154219 3.5035595143125624 L 1.790491107154219 3.502735769784059 C 1.7825004420255055 3.496101585422117 1.7776593942047956 3.486419489780697 1.7771464457924695 3.4760464470605608 L 1.7771464457924695 3.425303784104773 C 1.7776406925095711 3.410476382591718 1.7959278210423388 3.409817386968916 1.7959278210423388 3.409817386968916 L 1.8030120239874652 3.409817386968916 C 1.8030120239874652 3.409817386968916 1.8440345015069168 3.409817386968916 1.8440345015069168 3.371430891940674 L 1.8440345015069168 2.7901967526289253 C 1.8440345015069168 2.7901967526289253 1.8440345015069168 2.7518102576006833 1.8030120239874652 2.7518102576006833 L 1.7965868166651413 2.7518102576006833 C 1.7965868166651413 2.7518102576006833 1.7787939348494755 2.7524692532234862 1.7771464457924695 2.7369828560876286 L 1.7771464457924695 2.576187924123834 C 1.7771464457924695 2.576187924123834 1.778134939226673 2.5579007955910664 1.792468094022626 2.5435676407951138 L 1.7923033451169255 2.5435676407951138 C 1.8109781024576121 2.5244234362615994 1.821542358374384 2.4988095420276393 1.8217933992373343 2.472066615721049 C 1.8216315180862053 2.444772968968933 1.8106740373393613 2.4186527040534833 1.7913148516827215 2.3994123483070804 L 1.7914796005884224 2.3992475994013804 C 1.7914796005884224 2.3992475994013804 1.7733572209613555 2.366297818261258 1.7997170458734528 2.339443746632059 L 1.8030120239874652 2.339443746632059 C 1.8030120239874652 2.339443746632059 1.8440345015069168 2.339443746632059 1.8440345015069168 2.301057251603817 L 1.8440345015069168 2.075845497511085 C 1.8440345015069168 2.075845497511085 1.8440345015069168 2.037459002482843 1.8030120239874652 2.037459002482843 L 1.6099263065063512 2.037459002482843 C 1.6099263065063512 2.037459002482843 1.5689038289868995 2.037459002482843 1.5689038289868995 2.075845497511085 L 1.5689038289868995 2.3010572516038175 C 1.5689038289868995 2.3010572516038175 1.5689038289868995 2.3394437466320595 1.6099263065063512 2.3394437466320595 Z" fill="#006fbf" transform="matrix(1,0,0,1,0,0)" fill-rule="nonzero"></path></g><g clip-path="url(#a1d0fd4ee-0998-4d78-9fdb-519e30469b1f9399587a-9a94-477c-942a-f9ea50bdd3fc)"><path d=" M 1.3160142587364647 1.5333273510389795 C 1.2781220104253248 1.5407410517955071 1.2573636483070478 1.50910926190099 1.2573636483070478 1.50910926190099 L 1.2571988994013472 1.5092740108066909 C 1.2490113500136564 1.4828970984312346 1.2309494810136055 1.460703429333133 1.206785734256961 1.4473284222632619 C 1.1824935491407433 1.4336060108125892 1.1541056068816986 1.4289915099103991 1.1267177660864651 1.4343132587129135 L 1.1268825149921655 1.4339837609015125 C 1.1062889017795894 1.4382672324497283 1.0893197644924266 1.429535540447596 1.0893197644924266 1.429535540447596 L 0.9435169829473877 1.3469963386915909 L 0.9430227362302858 1.3466668408801896 C 0.9298428237742371 1.3374409021609555 0.939563009210573 1.3234372451764038 0.939563009210573 1.3234372451764038 L 0.9428579873245854 1.3181652801939843 C 0.9428579873245854 1.3181652801939843 0.9639458472542631 1.2850507501481618 0.929019079245734 1.2652808814640888 L 0.4008340875695816 0.9660968687117828 C 0.4008340875695816 0.9660968687117828 0.3659073195610525 0.9463270000277098 0.34481945963137456 0.9794415300735321 L 0.34119498370596113 0.9850429928673529 C 0.34119498370596113 0.9850429928673529 0.33098055155252337 1.000035143286108 0.3171416434736722 0.992127195812479 L 0.27200044331170536 0.9665911154288845 L 0.27200044331170536 0.966426366523184 C 0.27200044331170536 0.966426366523184 0.2573377907043511 0.9590126657666567 0.25387806368463833 0.9415492817623922 L 0.2530543191561353 0.941219783950991 C 0.2465742477102161 0.906330757701427 0.22489623793697947 0.8761385435325739 0.19390946200961656 0.8588453311006864 C 0.13350573337281665 0.8245796837828406 0.05688888063135262 0.8428526233099128 0.01845187743846804 0.9006915531486411 C 0.0009656935057766999 0.9280860303043702 -0.004316748450843296 0.9615271371033209 0.003874135097001638 0.9929776288939008 C 0.012065018644846421 1.0244281206844807 0.03298859665569669 1.0510442004143685 0.06161609073202773 1.0664289522834536 C 0.09364181035015673 1.084281693748182 0.13162401069455576 1.0880978017890635 0.16656114366331576 1.0769728822482927 L 0.16738488819181876 1.0774671289653945 C 0.17770322005140363 1.0744032509581636 0.18880817995793375 1.075466491800278 0.19835768246353325 1.0804326092680054 L 0.24465212496540428 1.1066276852744024 C 0.2578320374214531 1.1147003816537322 0.24910034541932083 1.1296925320724878 0.24910034541932083 1.1296925320724878 L 0.2453111205882068 1.135458743772009 C 0.2453111205882068 1.135458743772009 0.22422326065852885 1.1685732738178314 0.259150028667058 1.1883431425019044 L 0.7873350203432103 1.487691904159911 C 0.7873350203432103 1.487691904159911 0.8222617883517395 1.507461772843984 0.8433496482814175 1.4743472427981617 L 0.8466446263954296 1.469075277815742 C 0.8466446263954296 1.469075277815742 0.8553763183975619 1.4545773741140886 0.8702037199106166 1.4611673303421129 L 1.0163359992670569 1.5440360299095193 C 1.0163359992670569 1.5440360299095193 1.0324813920257165 1.5540857131572565 1.038247603725238 1.573196586218527 L 1.038247603725238 1.5730318373128265 C 1.0467390272338364 1.5987620342191582 1.064544573248271 1.620387251820848 1.0881665221525223 1.6336594346106506 C 1.11301122519014 1.647524843980878 1.142002935749359 1.6520255732410791 1.1698819793800244 1.6463451003495972 L 1.1698819793800244 1.6466745981609985 C 1.1698819793800244 1.6466745981609985 1.2090922189367694 1.6489810828408071 1.2199656467130096 1.684072599755037 L 1.2183181576560034 1.6867085822462466 C 1.2183181576560034 1.6867085822462466 1.1970655488206248 1.719823112292069 1.231992316829154 1.7395929809761421 L 1.4367752066150112 1.8555762105893707 C 1.4367752066150112 1.8555762105893707 1.4715372257178396 1.875346079273444 1.4926250856475176 1.8422315492276216 L 1.5921334246906855 1.6862143355291446 C 1.5921334246906855 1.6862143355291446 1.6132212846203633 1.6530998054833224 1.578459265517535 1.6333299367992493 L 1.373676375731678 1.5173467071860205 C 1.373676375731678 1.5173467071860205 1.3387496077231489 1.4975768385019474 1.317661747793471 1.5306913685477699 Z" fill="#006fbf" transform="matrix(1,0,0,1,0,0)" fill-rule="nonzero"></path></g><g clip-path="url(#a1d0fd4ee-0998-4d78-9fdb-519e30469b1f9399587a-9a94-477c-942a-f9ea50bdd3fc)"><path d=" M 2.096759322851651 2.1809552993480734 C 2.134651571162791 2.173541598591546 2.1554099332810677 2.205173388486063 2.1554099332810677 2.205173388486063 L 2.1555746821867685 2.2050086395803623 C 2.1637622315744593 2.2313855519558183 2.18182410057451 2.2535792210539203 2.205987847331155 2.2669542281237915 C 2.2302800324473724 2.2806766395744638 2.2586679747064173 2.2852911404766543 2.286055815501651 2.2799693916741397 L 2.28589106659595 2.2802988894855405 C 2.306484679808526 2.2761801668430257 2.323453817095689 2.284747109939457 2.323453817095689 2.284747109939457 L 2.4692565986407278 2.3672863116954623 L 2.46975084535783 2.3676158095068636 C 2.482930757813879 2.3768417482260977 2.4732105723775426 2.3908454052106496 2.4732105723775426 2.3908454052106496 L 2.4699155942635302 2.396117370193069 C 2.4699155942635302 2.396117370193069 2.4488277343338525 2.4292319002388916 2.4837545023423817 2.4490017689229644 L 3.011939494018534 2.7481857816752706 C 3.011939494018534 2.7481857816752706 3.0468662620270632 2.767955650359344 3.067954121956741 2.734841120313521 L 3.0715785978821546 2.7292396575197 C 3.0715785978821546 2.7292396575197 3.081793030035592 2.714247507100945 3.095631938114443 2.722155454574574 L 3.1407731382764106 2.747691534958168 L 3.1407731382764106 2.747856283863869 C 3.1407731382764106 2.747856283863869 3.155435790883765 2.755269984620396 3.1588955179034777 2.7727333686246607 L 3.15971926243198 2.7730628664360624 C 3.1661993338778993 2.8079518926856264 3.187877343651136 2.8381441068544793 3.2188641195784995 2.8554373192863665 C 3.2792678482152997 2.889702966604213 3.3558847009567634 2.8714300270771407 3.3943217041496476 2.813591097238412 C 3.411807888082339 2.786196620082683 3.417090330038959 2.7527555132837325 3.408899446491114 2.7213050214931522 C 3.400708562943269 2.6898545297025724 3.379784984932419 2.6632384499726847 3.351157490856088 2.6478536981035994 C 3.3191317712379593 2.630000956638871 3.2811495708935596 2.6261848485979895 3.2462124379248 2.6373097681387603 L 3.245388693396297 2.6368155214216586 C 3.235070361536712 2.6398793994288896 3.2239654016301817 2.638816158586775 3.2144158991245826 2.6338500411190475 L 3.1681214566227114 2.607654965112651 C 3.1549415441666624 2.599582268733321 3.163673236168795 2.5845901183145656 3.163673236168795 2.5845901183145656 L 3.167462460999909 2.5788239066150442 C 3.167462460999909 2.5788239066150442 3.1885503209295867 2.545709376569222 3.1536235529210574 2.5259395078851488 L 2.6254385612449056 2.226590746227142 C 2.6254385612449056 2.226590746227142 2.5905117932363764 2.206820877543069 2.569423933306698 2.2399354075888915 L 2.5661289551926862 2.245207372571311 C 2.5661289551926862 2.245207372571311 2.557397263190554 2.2597052762729644 2.542569861677499 2.25311532004494 L 2.396437582321059 2.170246620477534 C 2.396437582321059 2.170246620477534 2.380292189562399 2.1601969372297964 2.3745259778628776 2.141086064168526 L 2.3745259778628776 2.141250813074227 C 2.3660345543542793 2.115520616167895 2.3482290083398447 2.093895398566205 2.324607059435593 2.0806232157764026 C 2.2997623563979754 2.066757806406175 2.270770645838757 2.062257077145974 2.242891602208091 2.0679375500374557 L 2.242891602208091 2.0676080522260545 C 2.242891602208091 2.0676080522260545 2.2036813626513463 2.0653015675462463 2.192807934875106 2.030210050632016 L 2.194455423932112 2.0275740681408063 C 2.194455423932112 2.0275740681408063 2.2157080327674907 1.994459538094984 2.1807812647589615 1.974689669410911 L 1.9759983749731045 1.8587064397976822 C 1.9759983749731045 1.8587064397976822 1.941236355870276 1.8389365711136092 1.920148495940598 1.8720511011594316 L 1.8206401568974302 2.0280683148579084 C 1.8206401568974302 2.0280683148579084 1.7995522969677524 2.0611828449037306 1.8343143160705806 2.080952713587804 L 2.0390972058564376 2.1969359432010327 C 2.0390972058564376 2.1969359432010327 2.074023973864967 2.2167058118851055 2.095111833794645 2.1835912818392833 Z" fill="#006fbf" transform="matrix(1,0,0,1,0,0)" fill-rule="nonzero"></path></g><g clip-path="url(#a1d0fd4ee-0998-4d78-9fdb-519e30469b1f9399587a-9a94-477c-942a-f9ea50bdd3fc)"><path d=" M 2.096759322851651 1.5333273510389795 C 2.134651571162791 1.5407410517955071 2.1554099332810677 1.50910926190099 2.1554099332810677 1.50910926190099 L 2.1555746821867685 1.5092740108066909 C 2.1637622315744593 1.4828970984312346 2.18182410057451 1.460703429333133 2.205987847331155 1.4473284222632619 C 2.2302800324473724 1.4336060108125892 2.2586679747064173 1.4289915099103991 2.286055815501651 1.4343132587129135 L 2.28589106659595 1.4339837609015125 C 2.2985695218007005 1.4364535404763104 2.311702896157883 1.4348982724603283 2.323453817095689 1.429535540447596 L 2.4692565986407278 1.3469963386915909 L 2.46975084535783 1.3466668408801896 C 2.482930757813879 1.3374409021609555 2.4732105723775426 1.3234372451764038 2.4732105723775426 1.3234372451764038 L 2.4699155942635302 1.3181652801939843 C 2.4699155942635302 1.3181652801939843 2.4488277343338525 1.2850507501481618 2.4837545023423817 1.2652808814640888 L 3.011939494018534 0.9660968687117828 C 3.011939494018534 0.9660968687117828 3.0468662620270632 0.9463270000277098 3.067954121956741 0.9794415300735321 L 3.0715785978821546 0.9850429928673529 C 3.0715785978821546 0.9850429928673529 3.081793030035592 1.000035143286108 3.095631938114443 0.992127195812479 L 3.1407731382764106 0.9665911154288845 L 3.1407731382764106 0.966426366523184 C 3.1407731382764106 0.966426366523184 3.155435790883765 0.9590126657666567 3.1588955179034777 0.9415492817623922 L 3.15971926243198 0.941219783950991 C 3.165814971942903 0.9081052539051686 3.186079087344078 0.8774619574448552 3.2188641195784995 0.8588453311006864 C 3.2792678482152997 0.8245796837828406 3.3558847009567634 0.8428526233099128 3.3943217041496476 0.9006915531486411 C 3.411807888082339 0.9280860303043702 3.417090330038959 0.9615271371033209 3.408899446491114 0.9929776288939007 C 3.400708562943269 1.0244281206844807 3.379784984932419 1.0510442004143685 3.351157490856088 1.0664289522834536 C 3.3191317712379593 1.084281693748182 3.2811495708935596 1.0880978017890635 3.2462124379248 1.0769728822482927 L 3.245388693396297 1.0774671289653945 C 3.235070361536712 1.0744032509581636 3.2239654016301817 1.075466491800278 3.2144158991245826 1.0804326092680054 L 3.1681214566227114 1.1066276852744024 C 3.1549415441666624 1.1147003816537322 3.163673236168795 1.1296925320724878 3.163673236168795 1.1296925320724878 L 3.167462460999909 1.135458743772009 C 3.167462460999909 1.135458743772009 3.1885503209295867 1.1685732738178314 3.1536235529210574 1.1883431425019044 L 2.6254385612449056 1.487691904159911 C 2.6254385612449056 1.487691904159911 2.5905117932363764 1.507461772843984 2.569423933306698 1.4743472427981617 L 2.5661289551926862 1.469075277815742 C 2.5661289551926862 1.469075277815742 2.557397263190554 1.4545773741140886 2.542569861677499 1.4611673303421129 L 2.396437582321059 1.5440360299095193 C 2.396437582321059 1.5440360299095193 2.380292189562399 1.5540857131572565 2.3745259778628776 1.573196586218527 L 2.3745259778628776 1.5730318373128265 C 2.3660345543542793 1.5987620342191582 2.3482290083398447 1.620387251820848 2.324607059435593 1.6336594346106506 C 2.2997623563979754 1.647524843980878 2.270770645838757 1.6520255732410791 2.242891602208091 1.6463451003495972 L 2.242891602208091 1.6466745981609985 C 2.242891602208091 1.6466745981609985 2.2036813626513463 1.6489810828408071 2.192807934875106 1.684072599755037 L 2.194455423932112 1.6867085822462466 C 2.194455423932112 1.6867085822462466 2.2157080327674907 1.719823112292069 2.1807812647589615 1.7395929809761421 L 1.9759983749731045 1.8555762105893707 C 1.9759983749731045 1.8555762105893707 1.941236355870276 1.875346079273444 1.920148495940598 1.8422315492276216 L 1.8206401568974302 1.6862143355291446 C 1.8206401568974302 1.6862143355291446 1.7995522969677524 1.6530998054833224 1.8343143160705806 1.6333299367992493 L 2.0390972058564376 1.5173467071860205 C 2.0390972058564376 1.5173467071860205 2.074023973864967 1.4975768385019474 2.095111833794645 1.5306913685477699 Z" fill="#006fbf" transform="matrix(1,0,0,1,0,0)" fill-rule="nonzero"></path></g><g clip-path="url(#a1d0fd4ee-0998-4d78-9fdb-519e30469b1f9399587a-9a94-477c-942a-f9ea50bdd3fc)"><path d=" M 1.3160142587364647 2.1809552993480734 C 1.2781220104253248 2.173541598591546 1.2573636483070478 2.205173388486063 1.2573636483070478 2.205173388486063 L 1.2571988994013472 2.2050086395803623 C 1.2490113500136564 2.2313855519558183 1.2309494810136055 2.2535792210539203 1.206785734256961 2.2669542281237915 C 1.1824935491407433 2.2806766395744638 1.1541056068816986 2.2852911404766543 1.1267177660864651 2.2799693916741397 L 1.1268825149921655 2.2802988894855405 C 1.1062889017795894 2.2761801668430257 1.0893197644924266 2.284747109939457 1.0893197644924266 2.284747109939457 L 0.9435169829473877 2.3672863116954623 L 0.9430227362302858 2.3676158095068636 C 0.9298428237742371 2.3768417482260977 0.939563009210573 2.3908454052106496 0.939563009210573 2.3908454052106496 L 0.9428579873245854 2.396117370193069 C 0.9428579873245854 2.396117370193069 0.9639458472542631 2.4292319002388916 0.929019079245734 2.4490017689229644 L 0.4008340875695816 2.7481857816752706 C 0.4008340875695816 2.7481857816752706 0.3659073195610525 2.767955650359344 0.34481945963137456 2.734841120313521 L 0.34119498370596113 2.7292396575197 C 0.34119498370596113 2.7292396575197 0.33098055155252337 2.714247507100945 0.3171416434736722 2.722155454574574 L 0.27200044331170536 2.747691534958168 L 0.27200044331170536 2.747856283863869 C 0.27200044331170536 2.747856283863869 0.2573377907043511 2.755269984620396 0.25387806368463833 2.7727333686246607 L 0.2530543191561353 2.7730628664360624 C 0.2465742477102161 2.8079518926856264 0.22489623793697947 2.8381441068544793 0.19390946200961656 2.8554373192863665 C 0.13350573337281665 2.889702966604213 0.05688888063135262 2.8714300270771407 0.01845187743846804 2.813591097238412 C 0.0009656935057766999 2.786196620082683 -0.004316748450843296 2.752755513283732 0.003874135097001638 2.7213050214931522 C 0.012065018644846421 2.6898545297025724 0.03298859665569669 2.6632384499726847 0.06161609073202773 2.6478536981035994 C 0.09456587187214946 2.6292370717594307 0.13262286908899026 2.626765838173921 0.16656114366331576 2.6373097681387603 L 0.16738488819181876 2.6368155214216586 C 0.17770322005140363 2.6398793994288896 0.18880817995793375 2.638816158586775 0.19835768246353325 2.6338500411190475 L 0.24465212496540428 2.607654965112651 C 0.2578320374214531 2.599582268733321 0.24910034541932083 2.5845901183145656 0.24910034541932083 2.5845901183145656 L 0.2453111205882068 2.5788239066150442 C 0.2453111205882068 2.5788239066150442 0.22422326065852885 2.545709376569222 0.259150028667058 2.5259395078851488 L 0.7873350203432105 2.226590746227142 C 0.7873350203432105 2.226590746227142 0.8222617883517396 2.206820877543069 0.8433496482814175 2.2399354075888915 L 0.8466446263954297 2.245207372571311 C 0.8466446263954297 2.245207372571311 0.855376318397562 2.2597052762729644 0.8702037199106168 2.25311532004494 L 1.0163359992670569 2.170246620477534 C 1.0163359992670569 2.170246620477534 1.0324813920257168 2.1601969372297964 1.038247603725238 2.141086064168526 L 1.038247603725238 2.141250813074227 C 1.0467390272338364 2.115520616167895 1.064544573248271 2.093895398566205 1.0881665221525225 2.0806232157764026 C 1.1130112251901403 2.066757806406175 1.142002935749359 2.062257077145974 1.1698819793800246 2.0679375500374557 L 1.1698819793800246 2.0676080522260545 C 1.1698819793800246 2.0676080522260545 1.2090922189367697 2.0653015675462463 1.2199656467130098 2.030210050632016 L 1.2183181576560036 2.0275740681408063 C 1.2183181576560036 2.0275740681408063 1.197065548820625 1.994459538094984 1.2319923168291542 1.974689669410911 L 1.4367752066150112 1.8587064397976822 C 1.4367752066150112 1.8587064397976822 1.4715372257178398 1.8389365711136092 1.4926250856475176 1.8720511011594316 L 1.5921334246906855 2.0280683148579084 C 1.5921334246906855 2.0280683148579084 1.6132212846203637 2.0611828449037306 1.578459265517535 2.080952713587804 L 1.373676375731678 2.1969359432010327 C 1.373676375731678 2.1969359432010327 1.3387496077231489 2.2167058118851055 1.317661747793471 2.1835912818392833 Z" fill="#006fbf" transform="matrix(1,0,0,1,0,0)" fill-rule="nonzero"></path></g></g><g transform="matrix(-0.4967294250739999,-0.8679054546813573,0.8679054546813573,-0.4967294250739999,-3.753511360896649,3.6259194912760657)"><g clip-path="url(#SvgjsClipPath1003)"><path d=" M -1.0403953739725755 3.1997368856634227 L -0.8253255416679041 3.0601940264805654 L -0.6124147874507612 3.1997368856634227 L -0.6829055101307612 2.960212287169137 L -0.4958893071021898 2.8228273072519943 L -0.7303788539764755 2.8113186178348513 L -0.8253255416679041 2.561004623011994 L -0.9217108155364755 2.8113186178348513 L -1.1547629750554327 2.8228273072519943 L -0.9677467720268612 2.960212287169137 L -1.0403953739725755 3.1997368856634227 Z M -0.9986763748354326 3.146509197109137 L -0.907324953765047 2.9429492530434227 L -1.084991545464004 2.8436868068205654 L -0.8835882818421898 2.8602305478577086 L -0.8253255416679041 2.625741000983423 L -0.7692206807593327 2.8602305478577086 L -0.5656607366936184 2.8436868068205654 L -0.7433261295707613 2.9429492530434227 L -0.6526952004107612 3.146509197109137 L -0.8253255416679041 2.9968962346862797 L -0.9986763748354326 3.146509197109137 Z" fill="#004a80" transform="matrix(1,0,0,1,0,0)" fill-rule="nonzero"></path></g></g><g transform="matrix(0.4967294250739999,-0.8679054546813573,-0.8679054546813573,-0.4967294250739999,4.651047548798468,8.020873340703638)"><g clip-path="url(#SvgjsClipPath1004)"><path d=" M 4.023467084457455 3.1997368856634227 L 4.238536916762127 3.0601940264805654 L 4.45144767097927 3.1997368856634227 L 4.38095694829927 2.960212287169137 L 4.567973151327841 2.8228273072519943 L 4.333483604453556 2.8113186178348513 L 4.238536916762127 2.561004623011994 L 4.142151642893555 2.8113186178348513 L 3.9090994833745984 2.8228273072519943 L 4.09611568640317 2.960212287169137 L 4.023467084457455 3.1997368856634227 Z M 4.0651860835945985 3.146509197109137 L 4.156537504664984 2.9429492530434227 L 3.978870912966027 2.8436868068205654 L 4.180274176587841 2.8602305478577086 L 4.238536916762127 2.625741000983423 L 4.294641777670699 2.8602305478577086 L 4.498201721736413 2.8436868068205654 L 4.32053632885927 2.9429492530434227 L 4.41116725801927 3.146509197109137 L 4.238536916762127 2.9968962346862797 L 4.0651860835945985 3.146509197109137 Z" fill="#004a80" transform="matrix(1,0,0,1,0,0)" fill-rule="nonzero"></path></g></g></g><defs><clipPath id="SvgjsClipPath1002"><path d=" M 0 0 h 3.41290567553158 v 3.714149802715462 h -3.41290567553158 Z"></path></clipPath><clipPath id="a1d0fd4ee-0998-4d78-9fdb-519e30469b1f9399587a-9a94-477c-942a-f9ea50bdd3fc"><path d=" M -3.031269169479227e-16 3.7142733647036414 L 3.4129383304938172 3.7142733647036414 L 3.4129383304938172 0.000009285683411225238 L -3.031269169479227e-16 0.000009285683411225238 Z"></path></clipPath><clipPath id="SvgjsClipPath1003"><path d=" M -1.2450660264492255 2.48164261890628 h 0.8391752699999999 v 0.8391752699999999 h -0.8391752699999999 Z"></path></clipPath><clipPath id="SvgjsClipPath1004"><path d=" M 3.8187964319808057 2.48164261890628 h 0.8391752699999999 v 0.8391752699999999 h -0.8391752699999999 Z"></path></clipPath></defs></svg>